<?xml version="1.0" encoding="UTF-8" standalone="no"?>
<!DOCTYPE svg PUBLIC "-//W3C//DTD SVG 1.1//EN" "http://www.w3.org/Graphics/SVG/1.1/DTD/svg11.dtd">
<svg width="100%" height="100%" viewBox="0 0 105 62" version="1.1" xmlns="http://www.w3.org/2000/svg" xmlns:xlink="http://www.w3.org/1999/xlink" xml:space="preserve" xmlns:serif="http://www.serif.com/" style="fill-rule:evenodd;clip-rule:evenodd;stroke-linecap:round;stroke-linejoin:round;stroke-miterlimit:1.5;">
    <rect id="background" x="0" y="0" width="105" height="62" style="fill:#fff;"/>
    <rect x="51.5" y="27.5" width="1" height="1" style="fill:#d8d8d8;stroke:#8c8c8c;stroke-width:0.13px;"/>
    <path d="M52,16c6.623,0 12,5.377 12,12c-0,6.623 -5.377,12 -12,12c-6.623,0 -12,-5.377 -12,-12c-0,-6.623 5.377,-12 12,-12Zm-0,1c-6.071,0 -11,4.929 -11,11c-0,6.071 4.929,11 11,11c6.071,0 11,-4.929 11,-11c-0,-6.071 -4.929,-11 -11,-11Z" style="fill:#6a6bd3;"/>
    <g transform="matrix(1,0,0,1,-138.416,-158.677)">
        <g transform="matrix(12,0,0,12,163.476,213.245)">
            <path d="M0.356,-0.709l-0.065,0c-0.019,0.107 -0.107,0.133 -0.204,0.133l0,0.068l0.184,-0l0,0.508l0.085,-0l-0,-0.709Z" style="fill-rule:nonzero;"/>
        </g>
        <g transform="matrix(12,0,0,12,170.148,213.245)">
            <path d="M0.467,-0.263c0,0.101 -0.039,0.2 -0.155,0.2c-0.117,0 -0.163,-0.094 -0.163,-0.196c-0,-0.097 0.044,-0.195 0.158,-0.195c0.11,-0 0.16,0.094 0.16,0.191Zm-0.4,0.461l0.085,-0l-0,-0.267l0.002,0c0.038,0.061 0.114,0.081 0.167,0.081c0.158,-0 0.236,-0.123 0.236,-0.269c-0,-0.146 -0.079,-0.272 -0.238,-0.272c-0.071,0 -0.137,0.025 -0.165,0.082l-0.002,-0l-0,-0.07l-0.085,0l0,0.715Z" style="fill-rule:nonzero;"/>
        </g>
        <g transform="matrix(12,0,0,12,177.264,213.245)">
            <path d="M0.009,-0l0.103,-0l0.144,-0.215l0.144,0.215l0.109,-0l-0.2,-0.28l0.178,-0.237l-0.102,0l-0.129,0.18l-0.124,-0.18l-0.109,0l0.18,0.245l-0.194,0.272Z" style="fill-rule:nonzero;"/>
        </g>
        <g transform="matrix(12,0,0,12,186.816,213.245)">
            <path d="M0.119,-0.024l0.182,-0.182l0.181,0.182l0.048,-0.048l-0.181,-0.182l0.18,-0.18l-0.048,-0.048l-0.18,0.18l-0.181,-0.18l-0.048,0.048l0.181,0.18l-0.182,0.182l0.048,0.048Z" style="fill-rule:nonzero;"/>
        </g>
        <g transform="matrix(12,0,0,12,197.352,213.245)">
            <path d="M0.356,-0.709l-0.065,0c-0.019,0.107 -0.107,0.133 -0.204,0.133l0,0.068l0.184,-0l0,0.508l0.085,-0l-0,-0.709Z" style="fill-rule:nonzero;"/>
        </g>
        <g transform="matrix(12,0,0,12,204.024,213.245)">
            <path d="M0.467,-0.263c0,0.101 -0.039,0.2 -0.155,0.2c-0.117,0 -0.163,-0.094 -0.163,-0.196c-0,-0.097 0.044,-0.195 0.158,-0.195c0.11,-0 0.16,0.094 0.16,0.191Zm-0.4,0.461l0.085,-0l-0,-0.267l0.002,0c0.038,0.061 0.114,0.081 0.167,0.081c0.158,-0 0.236,-0.123 0.236,-0.269c-0,-0.146 -0.079,-0.272 -0.238,-0.272c-0.071,0 -0.137,0.025 -0.165,0.082l-0.002,-0l-0,-0.07l-0.085,0l0,0.715Z" style="fill-rule:nonzero;"/>
        </g>
        <g transform="matrix(12,0,0,12,211.14,213.245)">
            <path d="M0.009,-0l0.103,-0l0.144,-0.215l0.144,0.215l0.109,-0l-0.2,-0.28l0.178,-0.237l-0.102,0l-0.129,0.18l-0.124,-0.18l-0.109,0l0.18,0.245l-0.194,0.272Z" style="fill-rule:nonzero;"/>
        </g>
    </g>
    <path d="M78.5,16.5l-8,-0" style="fill:none;stroke:#3a3bc5;stroke-width:1px;stroke-linecap:butt;stroke-linejoin:miter;stroke-miterlimit:10;"/>
    <path d="M78.5,39.5l-8,-0" style="fill:none;stroke:#3a3bc5;stroke-width:1px;stroke-linecap:butt;stroke-linejoin:miter;stroke-miterlimit:10;"/>
    <path d="M74.5,16.5l-0,23" style="fill:none;stroke:#3a3bc5;stroke-width:1px;stroke-linecap:butt;stroke-linejoin:miter;stroke-miterlimit:1;"/>
    <path d="M79.509,26.28c-0.036,-1.02 0.468,-2.112 1.657,-2.112c0.9,-0 1.645,0.612 1.645,1.536c-0,1.176 -0.733,1.704 -2.173,2.592c-1.201,0.745 -2.219,1.465 -2.387,3.48l5.554,-0l0,-0.899l-4.368,0c0.204,-1.056 1.321,-1.596 2.389,-2.244c1.057,-0.661 2.063,-1.417 2.063,-2.917c0,-1.584 -1.174,-2.447 -2.663,-2.447c-1.801,0 -2.819,1.283 -2.735,3.011l1.018,0Z" style="fill:#3a3bc5;fill-rule:nonzero;"/>
    <path d="M89.661,23.269l-0.815,0l-3.875,5.532l-0,0.983l3.732,-0l-0,1.992l0.958,-0l0,-1.992l1.152,-0l0,-0.899l-1.152,0l0,-5.616Zm-3.814,5.616l2.832,-4.164l0.024,0l-0,4.164l-2.856,0Z" style="fill:#3a3bc5;fill-rule:nonzero;"/>
    <path d="M96.911,28.62c-0,1.213 -0.469,2.401 -1.861,2.401c-1.405,0 -1.957,-1.128 -1.957,-2.353c0,-1.164 0.528,-2.34 1.897,-2.34c1.32,-0 1.921,1.128 1.921,2.292Zm-4.8,5.532l1.018,-0l0,-3.203l0.024,0c0.456,0.731 1.369,0.971 2.005,0.971c1.896,-0 2.831,-1.475 2.831,-3.228c0,-1.752 -0.947,-3.263 -2.855,-3.263c-0.852,0 -1.645,0.3 -1.981,0.983l-0.024,-0l0,-0.839l-1.018,0l-0,8.579Z" style="fill:#3a3bc5;fill-rule:nonzero;"/>
    <path d="M98.531,31.776l1.235,-0l1.728,-2.578l1.727,2.578l1.308,-0l-2.399,-3.36l2.135,-2.843l-1.223,0l-1.548,2.162l-1.488,-2.162l-1.307,0l2.159,2.939l-2.327,3.264Z" style="fill:#3a3bc5;fill-rule:nonzero;"/>
</svg>
