<svg xmlns="http://www.w3.org/2000/svg" viewBox="0 335.5 1190.55 170.891" style="fill:#fff"><path d="M202.893 389.168h53.109v9.924h-20.857v55.682h-11.486v-55.682h-20.766v-9.924zM263.851 389.168h11.486v26.096H305.2v-26.096h11.486v65.605H305.2v-29.587h-29.863v29.587h-11.486v-65.605zM331.114 389.168h47.229v9.924H342.6v17.182h33.08v9.371H342.6v19.205h36.387v9.924h-47.872v-65.605h-.001z"/><path d="M390.657 389.168h31.147c12.223 0 23.707 5.604 23.707 21.133 0 16.264-9.281 22.604-23.707 22.604h-14.059v21.869h-17.09l.002-65.606zm17.091 30.506h11.485c5.33 0 9.188-2.206 9.188-8.179 0-6.156-3.951-8.637-9.188-8.637h-11.485v16.816zM467.695 389.168h17.366l24.536 65.605H491.77l-4.042-11.761h-22.88l-4.135 11.761h-17.551l24.533-65.605zm1.105 41.164h14.885l-7.259-22.972h-.186l-7.44 22.972zM556.187 412.597c-.919-6.615-6.065-10.107-13.232-10.107-11.027 0-15.254 9.739-15.254 19.479 0 9.74 4.227 19.479 15.254 19.479 7.995 0 12.59-4.594 13.232-12.129h17.09c-.919 16.906-13.323 26.831-29.955 26.831-19.849 0-32.711-15.162-32.711-34.182s12.862-34.181 32.711-34.181c14.151 0 29.494 9.004 29.955 24.81h-17.09zM583.68 389.168h17.091v65.605H583.68v-65.605zM614.076 389.168h52.281v13.69h-35.189v11.485h32.158v13.231h-32.158v12.497h36.109v14.702h-53.201v-65.605zM678.941 389.168h17.09v50.903h30.6v14.702h-47.688v-65.605h-.002zM734.884 389.168h17.09v50.903h30.598v14.702h-47.688v-65.605zM820.238 387.79c20.674 0 32.344 15.16 32.344 34.18s-11.67 34.182-32.344 34.182-32.342-15.162-32.342-34.182c-.002-19.02 11.666-34.18 32.342-34.18zm0 53.66c11.025 0 15.252-9.741 15.252-19.48s-4.227-19.479-15.252-19.479-15.254 9.739-15.254 19.479c0 9.741 4.228 19.48 15.254 19.48z"/><path d="M922.968 454.773h-7.352l-1.746-7.718c-6.156 6.982-11.76 9.278-19.754 9.278-19.664 0-31.426-15.619-31.426-34.364 0-18.744 11.762-34.364 31.426-34.364 14.334 0 26.369 7.626 28.117 22.42h-11.211c-1.102-8.638-8.635-13.049-16.904-13.049-14.059 0-19.939 12.404-19.939 24.992 0 12.589 5.881 24.992 19.939 24.992 11.762.184 18.191-6.891 18.377-18.01h-17.459v-8.727h27.934v34.549h-.002zM936.414 389.168h31.334c14.334 0 21.684 6.615 21.684 17.733 0 12.588-8.727 15.804-10.842 16.539v.184c3.951.553 9.74 3.492 9.74 13.876 0 7.626 1.102 14.608 3.584 17.273h-12.313c-1.746-2.848-1.746-6.432-1.746-9.647 0-12.037-2.48-17.366-13.049-17.366H947.9v27.014h-11.484v-65.605h-.002zm11.486 29.861h18.836c7.26 0 11.211-3.583 11.211-10.475 0-8.361-5.42-10.016-11.395-10.016H947.9v20.491zM1061.003 421.969c0 18.745-11.762 34.364-31.424 34.364-19.666 0-31.426-15.619-31.426-34.364 0-18.744 11.76-34.364 31.426-34.364 19.663 0 31.424 15.62 31.424 34.364zm-51.363 0c0 12.59 5.881 24.992 19.939 24.992s19.939-12.402 19.939-24.992c0-12.588-5.881-24.992-19.939-24.992s-19.939 12.405-19.939 24.992zM1071.435 389.168h11.486v38.225c0 8.821.551 19.02 15.436 19.02s15.436-10.198 15.436-19.02v-38.225h11.486v41.99c0 16.816-10.752 25.176-26.922 25.176-16.174 0-26.924-8.359-26.924-25.176v-41.99h.002zM1139.279 389.168h28.943c18.744 0 22.328 12.129 22.328 20.306 0 8.086-3.584 20.216-22.328 20.123h-17.459v25.177h-11.484v-65.606zm11.484 31.056h16.816c5.146 0 11.484-2.572 11.484-10.843 0-8.637-5.238-10.843-11.303-10.843h-16.998v21.686z"/><path d="M44.963 506.39l21.098-68.57c-12.141-8.269-20.117-22.2-20.117-37.997 0-25.375 20.571-45.945 45.945-45.945s45.945 20.57 45.945 45.945c0 15.797-7.975 29.729-20.117 37.997l21.098 68.57c26.919-16.023 44.963-45.4 44.963-79.002 0-50.748-41.141-91.889-91.89-91.889C41.141 335.5 0 376.64 0 427.389c0 33.603 18.044 62.978 44.963 79.001z"/></svg>